<svg width="150" height="50" viewBox="0 0 150 50" fill="none" xmlns="http://www.w3.org/2000/svg">
<path d="M12.024 48.504C9.072 48.504 6.708 47.64 4.932 45.912C3.18 44.16 2.304 41.604 2.304 38.244V32.556C2.304 29.196 3.18 26.652 4.932 24.924C6.708 23.172 9.072 22.296 12.024 22.296C14.952 22.296 17.184 23.124 18.72 24.78C20.28 26.412 21.06 28.644 21.06 31.476V31.656H18.756V31.404C18.756 29.34 18.204 27.66 17.1 26.364C16.02 25.044 14.328 24.384 12.024 24.384C9.696 24.384 7.872 25.092 6.552 26.508C5.256 27.924 4.608 29.916 4.608 32.484V38.316C4.608 40.884 5.256 42.876 6.552 44.292C7.872 45.708 9.696 46.416 12.024 46.416C14.328 46.416 16.02 45.768 17.1 44.472C18.204 43.152 18.756 41.46 18.756 39.396V38.856H21.06V39.324C21.06 42.156 20.28 44.4 18.72 46.056C17.184 47.688 14.952 48.504 12.024 48.504ZM34.2225 48.504C32.4465 48.504 30.8865 48.132 29.5425 47.388C28.2225 46.62 27.1905 45.564 26.4465 44.22C25.7265 42.852 25.3665 41.268 25.3665 39.468V39.036C25.3665 37.236 25.7265 35.664 26.4465 34.32C27.1905 32.952 28.2225 31.896 29.5425 31.152C30.8865 30.384 32.4465 30 34.2225 30C35.9985 30 37.5465 30.384 38.8665 31.152C40.2105 31.896 41.2425 32.952 41.9625 34.32C42.7065 35.664 43.0785 37.236 43.0785 39.036V39.468C43.0785 41.268 42.7065 42.852 41.9625 44.22C41.2425 45.564 40.2105 46.62 38.8665 47.388C37.5465 48.132 35.9985 48.504 34.2225 48.504ZM34.2225 46.56C36.2865 46.56 37.9185 45.912 39.1185 44.616C40.3185 43.296 40.9185 41.556 40.9185 39.396V39.108C40.9185 36.948 40.3185 35.22 39.1185 33.924C37.9185 32.604 36.2865 31.944 34.2225 31.944C32.1825 31.944 30.5505 32.604 29.3265 33.924C28.1265 35.22 27.5265 36.948 27.5265 39.108V39.396C27.5265 41.556 28.1265 43.296 29.3265 44.616C30.5505 45.912 32.1825 46.56 34.2225 46.56ZM48.5547 48V30.504H50.6427V33.744H51.0747C51.5067 32.808 52.2147 31.98 53.1987 31.26C54.1827 30.516 55.6107 30.144 57.4827 30.144C58.7547 30.144 59.9187 30.408 60.9747 30.936C62.0307 31.464 62.8707 32.268 63.4947 33.348C64.1427 34.404 64.4667 35.736 64.4667 37.344V48H62.3067V37.488C62.3067 35.568 61.8267 34.188 60.8667 33.348C59.9067 32.508 58.6227 32.088 57.0147 32.088C55.2147 32.088 53.7147 32.688 52.5147 33.888C51.3147 35.064 50.7147 36.852 50.7147 39.252V48H48.5547ZM70.5977 48V30.504H72.6857V33.744H73.1177C73.5497 32.808 74.2577 31.98 75.2417 31.26C76.2257 30.516 77.6537 30.144 79.5257 30.144C80.7977 30.144 81.9617 30.408 83.0177 30.936C84.0737 31.464 84.9137 32.268 85.5377 33.348C86.1857 34.404 86.5097 35.736 86.5097 37.344V48H84.3497V37.488C84.3497 35.568 83.8697 34.188 82.9097 33.348C81.9497 32.508 80.6657 32.088 79.0577 32.088C77.2577 32.088 75.7577 32.688 74.5577 33.888C73.3577 35.064 72.7577 36.852 72.7577 39.252V48H70.5977ZM100.705 48.504C98.9047 48.504 97.3327 48.132 95.9887 47.388C94.6687 46.62 93.6367 45.552 92.8927 44.184C92.1487 42.816 91.7767 41.244 91.7767 39.468V39.036C91.7767 37.236 92.1487 35.664 92.8927 34.32C93.6367 32.952 94.6567 31.896 95.9527 31.152C97.2727 30.384 98.7727 30 100.453 30C102.085 30 103.525 30.348 104.773 31.044C106.045 31.716 107.041 32.7 107.761 33.996C108.481 35.268 108.841 36.792 108.841 38.568V39.72H93.9367C94.0087 41.904 94.6687 43.596 95.9167 44.796C97.1887 45.972 98.7847 46.56 100.705 46.56C102.337 46.56 103.597 46.188 104.485 45.444C105.397 44.7 106.093 43.788 106.573 42.708L108.517 43.572C108.157 44.364 107.653 45.144 107.005 45.912C106.381 46.656 105.565 47.28 104.557 47.784C103.549 48.264 102.265 48.504 100.705 48.504ZM93.9727 37.848H106.645C106.549 35.952 105.937 34.5 104.809 33.492C103.681 32.46 102.229 31.944 100.453 31.944C98.7007 31.944 97.2487 32.46 96.0967 33.492C94.9447 34.5 94.2367 35.952 93.9727 37.848ZM122.148 48.504C120.444 48.504 118.92 48.144 117.576 47.424C116.256 46.68 115.212 45.624 114.444 44.256C113.676 42.888 113.292 41.28 113.292 39.432V39.072C113.292 37.2 113.676 35.592 114.444 34.248C115.212 32.88 116.256 31.836 117.576 31.116C118.92 30.372 120.444 30 122.148 30C123.828 30 125.244 30.324 126.396 30.972C127.572 31.596 128.484 32.424 129.132 33.456C129.804 34.464 130.224 35.532 130.392 36.66L128.268 37.092C128.148 36.156 127.848 35.304 127.368 34.536C126.888 33.744 126.216 33.12 125.352 32.664C124.488 32.184 123.42 31.944 122.148 31.944C120.876 31.944 119.736 32.244 118.728 32.844C117.72 33.42 116.916 34.248 116.316 35.328C115.74 36.384 115.452 37.644 115.452 39.108V39.396C115.452 40.86 115.74 42.132 116.316 43.212C116.916 44.268 117.72 45.096 118.728 45.696C119.736 46.272 120.876 46.56 122.148 46.56C124.068 46.56 125.532 46.068 126.54 45.084C127.548 44.076 128.172 42.852 128.412 41.412L130.536 41.844C130.32 42.972 129.864 44.052 129.168 45.084C128.496 46.092 127.572 46.92 126.396 47.568C125.244 48.192 123.828 48.504 122.148 48.504ZM142.04 48C140.864 48 139.904 47.64 139.16 46.92C138.44 46.176 138.08 45.192 138.08 43.968V33.888H133.616V30.144H138.08V24.6H142.616V30.144H147.512V33.888H142.616V43.176C142.616 43.896 142.952 44.256 143.624 44.256H147.08V48H142.04Z" fill="white"/>
<path d="M28.648 27L35.272 1.8H43.552L50.176 27H45.28L43.912 21.456H34.912L33.544 27H28.648ZM36.028 17.064H42.796L39.736 4.788H39.088L36.028 17.064ZM53.3364 27V1.8H57.8724V27H53.3364ZM69.7029 27.288C68.3109 27.288 67.0869 26.976 66.0309 26.352C64.9989 25.704 64.1949 24.816 63.6189 23.688C63.0429 22.56 62.7549 21.264 62.7549 19.8V9.144H67.2909V19.44C67.2909 20.784 67.6149 21.792 68.2629 22.464C68.9349 23.136 69.8829 23.472 71.1069 23.472C72.4989 23.472 73.5789 23.016 74.3469 22.104C75.1149 21.168 75.4989 19.872 75.4989 18.216V9.144H80.0349V27H75.5709V24.66H74.9229C74.6349 25.26 74.0949 25.848 73.3029 26.424C72.5109 27 71.3109 27.288 69.7029 27.288ZM85.0825 27V9.144H89.5465V11.088H90.1945C90.5065 10.488 91.0225 9.972 91.7425 9.54C92.4625 9.084 93.4105 8.856 94.5865 8.856C95.8585 8.856 96.8785 9.108 97.6465 9.612C98.4145 10.092 99.0025 10.728 99.4105 11.52H100.059C100.467 10.752 101.043 10.116 101.787 9.612C102.531 9.108 103.587 8.856 104.955 8.856C106.059 8.856 107.055 9.096 107.943 9.576C108.855 10.032 109.575 10.74 110.103 11.7C110.655 12.636 110.931 13.824 110.931 15.264V27H106.395V15.588C106.395 14.604 106.143 13.872 105.639 13.392C105.135 12.888 104.427 12.636 103.515 12.636C102.483 12.636 101.679 12.972 101.103 13.644C100.551 14.292 100.275 15.228 100.275 16.452V27H95.7385V15.588C95.7385 14.604 95.4865 13.872 94.9825 13.392C94.4785 12.888 93.7705 12.636 92.8585 12.636C91.8265 12.636 91.0225 12.972 90.4465 13.644C89.8945 14.292 89.6185 15.228 89.6185 16.452V27H85.0825ZM115.809 27V9.144H120.273V11.484H120.921C121.209 10.86 121.749 10.272 122.541 9.72C123.333 9.144 124.533 8.856 126.141 8.856C127.533 8.856 128.745 9.18 129.777 9.828C130.833 10.452 131.649 11.328 132.225 12.456C132.801 13.56 133.089 14.856 133.089 16.344V27H128.553V16.704C128.553 15.36 128.217 14.352 127.545 13.68C126.897 13.008 125.961 12.672 124.737 12.672C123.345 12.672 122.265 13.14 121.497 14.076C120.729 14.988 120.345 16.272 120.345 17.928V27H115.809ZM137.993 27V9.144H142.529V27H137.993ZM140.261 7.056C139.445 7.056 138.749 6.792 138.173 6.264C137.621 5.736 137.345 5.04 137.345 4.176C137.345 3.312 137.621 2.616 138.173 2.088C138.749 1.56 139.445 1.296 140.261 1.296C141.101 1.296 141.797 1.56 142.349 2.088C142.901 2.616 143.177 3.312 143.177 4.176C143.177 5.04 142.901 5.736 142.349 6.264C141.797 6.792 141.101 7.056 140.261 7.056Z" fill="white"/>
</svg>
